<svg xmlns="http://www.w3.org/2000/svg" xmlns:xlink="http://www.w3.org/1999/xlink" contentStyleType="text/css" data-diagram-type="SEQUENCE" height="635px" preserveAspectRatio="none" style="width:816px;height:635px;background:#1B1B1B;" version="1.1" viewBox="0 0 816 635" width="816px" zoomAndPan="magnify"><defs/><g><rect fill="#1B1B1B" height="635" style="stroke:#FFFFFF00;stroke-width:1;" width="816" x="0" y="0"/><g><title>Client</title><rect fill="#FFFFFF" fill-opacity="0.00000" height="473.3906" width="8" x="24.2651" y="81.2969"/><line style="stroke:#E7E7E7;stroke-width:0.5;stroke-dasharray:5.0,5.0;" x1="28" x2="28" y1="81.2969" y2="554.6875"/></g><g><title>Backend</title><rect fill="#FFFFFF" fill-opacity="0.00000" height="473.3906" width="8" x="155.7056" y="81.2969"/><line style="stroke:#E7E7E7;stroke-width:0.5;stroke-dasharray:5.0,5.0;" x1="159.5249" x2="159.5249" y1="81.2969" y2="554.6875"/></g><g><title>Third Party</title><rect fill="#FFFFFF" fill-opacity="0.00000" height="473.3906" width="8" x="283.6611" y="81.2969"/><line style="stroke:#E7E7E7;stroke-width:0.5;stroke-dasharray:5.0,5.0;" x1="287.4678" x2="287.4678" y1="81.2969" y2="554.6875"/></g><g><title>SQS</title><rect fill="#FFFFFF" fill-opacity="0.00000" height="473.3906" width="8" x="442.2188" y="81.2969"/><line style="stroke:#E7E7E7;stroke-width:0.5;stroke-dasharray:5.0,5.0;" x1="445.8223" x2="445.8223" y1="81.2969" y2="554.6875"/></g><g><title>Parser</title><rect fill="#FFFFFF" fill-opacity="0.00000" height="473.3906" width="8" x="603.3154" y="81.2969"/><line style="stroke:#E7E7E7;stroke-width:0.5;stroke-dasharray:5.0,5.0;" x1="607.1309" x2="607.1309" y1="81.2969" y2="554.6875"/></g><g><title>PDF Gen</title><rect fill="#FFFFFF" fill-opacity="0.00000" height="473.3906" width="8" x="685.5303" y="81.2969"/><line style="stroke:#E7E7E7;stroke-width:0.5;stroke-dasharray:5.0,5.0;" x1="689.5" x2="689.5" y1="81.2969" y2="554.6875"/></g><g><title>Tracking</title><rect fill="#FFFFFF" fill-opacity="0.00000" height="473.3906" width="8" x="769.731" y="81.2969"/><line style="stroke:#E7E7E7;stroke-width:0.5;stroke-dasharray:5.0,5.0;" x1="773.5605" x2="773.5605" y1="81.2969" y2="554.6875"/></g><g><text fill="#FFFFFF" font-family="sans-serif" font-size="14" lengthAdjust="spacing" textLength="40.5303" x="5" y="77.9951">Client</text><ellipse cx="28.2651" cy="13.5" fill="#222222" rx="8" ry="8" style="stroke:#E7E7E7;stroke-width:0.5;"/><path d="M28.2651,21.5 L28.2651,48.5 M15.2651,29.5 L41.2651,29.5 M28.2651,48.5 L15.2651,63.5 M28.2651,48.5 L41.2651,63.5 " fill="#FFFFFF" fill-opacity="0.00000" style="stroke:#E7E7E7;stroke-width:0.5;"/></g><g><text fill="#FFFFFF" font-family="sans-serif" font-size="14" lengthAdjust="spacing" textLength="40.5303" x="5" y="566.6826">Client</text><ellipse cx="28.2651" cy="578.4844" fill="#222222" rx="8" ry="8" style="stroke:#E7E7E7;stroke-width:0.5;"/><path d="M28.2651,586.4844 L28.2651,613.4844 M15.2651,594.4844 L41.2651,594.4844 M28.2651,613.4844 L15.2651,628.4844 M28.2651,613.4844 L41.2651,628.4844 " fill="#FFFFFF" fill-opacity="0.00000" style="stroke:#E7E7E7;stroke-width:0.5;"/></g><g><rect fill="#222222" height="30.2969" rx="2.5" ry="2.5" style="stroke:#E7E7E7;stroke-width:0.5;" width="74.3613" x="122.5249" y="50"/><text fill="#FFFFFF" font-family="sans-serif" font-size="14" lengthAdjust="spacing" textLength="60.3613" x="129.5249" y="69.9951">Backend</text></g><g><rect fill="#222222" height="30.2969" rx="2.5" ry="2.5" style="stroke:#E7E7E7;stroke-width:0.5;" width="74.3613" x="122.5249" y="553.6875"/><text fill="#FFFFFF" font-family="sans-serif" font-size="14" lengthAdjust="spacing" textLength="60.3613" x="129.5249" y="573.6826">Backend</text></g><g><rect fill="#222222" height="46.5938" rx="2.5" ry="2.5" style="stroke:#E7E7E7;stroke-width:0.5;" width="96.3867" x="239.4678" y="33.7031"/><text fill="#FFFFFF" font-family="sans-serif" font-size="14" lengthAdjust="spacing" textLength="76.959" x="249.1816" y="53.6982">Third Party</text><text fill="#FFFFFF" font-family="sans-serif" font-size="14" lengthAdjust="spacing" textLength="82.3867" x="246.4678" y="69.9951">API Adapter</text></g><g><rect fill="#222222" height="46.5938" rx="2.5" ry="2.5" style="stroke:#E7E7E7;stroke-width:0.5;" width="96.3867" x="239.4678" y="553.6875"/><text fill="#FFFFFF" font-family="sans-serif" font-size="14" lengthAdjust="spacing" textLength="76.959" x="249.1816" y="573.6826">Third Party</text><text fill="#FFFFFF" font-family="sans-serif" font-size="14" lengthAdjust="spacing" textLength="82.3867" x="246.4678" y="589.9795">API Adapter</text></g><g><path d="M426.8223,55 L465.6152,55 C470.6152,55 470.6152,68.1484 470.6152,68.1484 C470.6152,68.1484 470.6152,81.2969 465.6152,81.2969 L426.8223,81.2969 C421.8223,81.2969 421.8223,68.1484 421.8223,68.1484 C421.8223,68.1484 421.8223,55 426.8223,55 " fill="#222222" style="stroke:#E7E7E7;stroke-width:0.5;"/><path d="M465.6152,55 C460.6152,55 460.6152,68.1484 460.6152,68.1484 C460.6152,81.2969 465.6152,81.2969 465.6152,81.2969 " fill="#FFFFFF" fill-opacity="0.00000" style="stroke:#E7E7E7;stroke-width:0.5;"/><text fill="#FFFFFF" font-family="sans-serif" font-size="14" lengthAdjust="spacing" textLength="28.793" x="426.8223" y="72.9951">SQS</text></g><g><path d="M426.8223,553.6875 L465.6152,553.6875 C470.6152,553.6875 470.6152,566.8359 470.6152,566.8359 C470.6152,566.8359 470.6152,579.9844 465.6152,579.9844 L426.8223,579.9844 C421.8223,579.9844 421.8223,566.8359 421.8223,566.8359 C421.8223,566.8359 421.8223,553.6875 426.8223,553.6875 " fill="#222222" style="stroke:#E7E7E7;stroke-width:0.5;"/><path d="M465.6152,553.6875 C460.6152,553.6875 460.6152,566.8359 460.6152,566.8359 C460.6152,579.9844 465.6152,579.9844 465.6152,579.9844 " fill="#FFFFFF" fill-opacity="0.00000" style="stroke:#E7E7E7;stroke-width:0.5;"/><text fill="#FFFFFF" font-family="sans-serif" font-size="14" lengthAdjust="spacing" textLength="28.793" x="426.8223" y="571.6826">SQS</text></g><g><rect fill="#222222" height="46.5938" rx="2.5" ry="2.5" style="stroke:#E7E7E7;stroke-width:0.5;" width="70.3691" x="572.1309" y="33.7031"/><text fill="#FFFFFF" font-family="sans-serif" font-size="14" lengthAdjust="spacing" textLength="44.4404" x="585.0952" y="53.6982">Parser</text><text fill="#FFFFFF" font-family="sans-serif" font-size="14" lengthAdjust="spacing" textLength="56.3691" x="579.1309" y="69.9951">Lambda</text></g><g><rect fill="#222222" height="46.5938" rx="2.5" ry="2.5" style="stroke:#E7E7E7;stroke-width:0.5;" width="70.3691" x="572.1309" y="553.6875"/><text fill="#FFFFFF" font-family="sans-serif" font-size="14" lengthAdjust="spacing" textLength="44.4404" x="585.0952" y="573.6826">Parser</text><text fill="#FFFFFF" font-family="sans-serif" font-size="14" lengthAdjust="spacing" textLength="56.3691" x="579.1309" y="589.9795">Lambda</text></g><g><rect fill="#222222" height="46.5938" rx="2.5" ry="2.5" style="stroke:#E7E7E7;stroke-width:0.5;" width="74.0605" x="652.5" y="33.7031"/><text fill="#FFFFFF" font-family="sans-serif" font-size="14" lengthAdjust="spacing" textLength="60.0605" x="659.5" y="53.6982">PDF Gen</text><text fill="#FFFFFF" font-family="sans-serif" font-size="14" lengthAdjust="spacing" textLength="56.3691" x="661.3457" y="69.9951">Lambda</text></g><g><rect fill="#222222" height="46.5938" rx="2.5" ry="2.5" style="stroke:#E7E7E7;stroke-width:0.5;" width="74.0605" x="652.5" y="553.6875"/><text fill="#FFFFFF" font-family="sans-serif" font-size="14" lengthAdjust="spacing" textLength="60.0605" x="659.5" y="573.6826">PDF Gen</text><text fill="#FFFFFF" font-family="sans-serif" font-size="14" lengthAdjust="spacing" textLength="56.3691" x="661.3457" y="589.9795">Lambda</text></g><g><rect fill="#222222" height="46.5938" rx="2.5" ry="2.5" style="stroke:#E7E7E7;stroke-width:0.5;" width="74.3408" x="736.5605" y="33.7031"/><text fill="#FFFFFF" font-family="sans-serif" font-size="14" lengthAdjust="spacing" textLength="60.3408" x="743.5605" y="53.6982">Tracking</text><text fill="#FFFFFF" font-family="sans-serif" font-size="14" lengthAdjust="spacing" textLength="56.3691" x="745.5464" y="69.9951">Lambda</text></g><g><rect fill="#222222" height="46.5938" rx="2.5" ry="2.5" style="stroke:#E7E7E7;stroke-width:0.5;" width="74.3408" x="736.5605" y="553.6875"/><text fill="#FFFFFF" font-family="sans-serif" font-size="14" lengthAdjust="spacing" textLength="60.3408" x="743.5605" y="573.6826">Tracking</text><text fill="#FFFFFF" font-family="sans-serif" font-size="14" lengthAdjust="spacing" textLength="56.3691" x="745.5464" y="589.9795">Lambda</text></g><g><polygon fill="#E7E7E7" points="147.7056,108.4297,157.7056,112.4297,147.7056,116.4297,151.7056,112.4297" style="stroke:#E7E7E7;stroke-width:1;"/><line style="stroke:#E7E7E7;stroke-width:1;" x1="28.2651" x2="153.7056" y1="112.4297" y2="112.4297"/><text fill="#FFFFFF" font-family="sans-serif" font-size="13" lengthAdjust="spacing" textLength="107.4404" x="35.2651" y="107.3638">Requests Import</text></g><g><polygon fill="#E7E7E7" points="275.6611,137.5625,285.6611,141.5625,275.6611,145.5625,279.6611,141.5625" style="stroke:#E7E7E7;stroke-width:1;"/><line style="stroke:#E7E7E7;stroke-width:1;" x1="159.7056" x2="281.6611" y1="141.5625" y2="141.5625"/><text fill="#FFFFFF" font-family="sans-serif" font-size="13" lengthAdjust="spacing" textLength="103.9556" x="166.7056" y="136.4966">Starts Migration</text></g><g><line style="stroke:#E7E7E7;stroke-width:1;stroke-dasharray:2.0,2.0;" x1="287.6611" x2="329.6611" y1="185.8281" y2="185.8281"/><line style="stroke:#E7E7E7;stroke-width:1;stroke-dasharray:2.0,2.0;" x1="329.6611" x2="329.6611" y1="185.8281" y2="198.8281"/><line style="stroke:#E7E7E7;stroke-width:1;stroke-dasharray:2.0,2.0;" x1="288.6611" x2="329.6611" y1="198.8281" y2="198.8281"/><polygon fill="#E7E7E7" points="298.6611,194.8281,288.6611,198.8281,298.6611,202.8281,294.6611,198.8281" style="stroke:#E7E7E7;stroke-width:1;"/><text fill="#FFFFFF" font-family="sans-serif" font-size="13" lengthAdjust="spacing" textLength="91.3809" x="294.6611" y="165.6294">Fetch All Data</text><text fill="#FFFFFF" font-family="sans-serif" font-size="13" lengthAdjust="spacing" textLength="117.6792" x="294.6611" y="180.7622">From Data Source</text></g><g><polygon fill="#E7E7E7" points="434.2188,239.0938,444.2188,243.0938,434.2188,247.0938,438.2188,243.0938" style="stroke:#E7E7E7;stroke-width:1;"/><line style="stroke:#E7E7E7;stroke-width:1;" x1="287.6611" x2="440.2188" y1="243.0938" y2="243.0938"/><text fill="#FFFFFF" font-family="sans-serif" font-size="13" lengthAdjust="spacing" textLength="134.5576" x="294.6611" y="222.895">Sends Out Uniformly</text><text fill="#FFFFFF" font-family="sans-serif" font-size="13" lengthAdjust="spacing" textLength="102.3623" x="294.6611" y="238.0278">Sized Data Sets</text></g><g><polygon fill="#E7E7E7" points="457.2188,268.2266,447.2188,272.2266,457.2188,276.2266,453.2188,272.2266" style="stroke:#E7E7E7;stroke-width:1;"/><polygon fill="#E7E7E7" points="595.3154,268.2266,605.3154,272.2266,595.3154,276.2266,599.3154,272.2266" style="stroke:#E7E7E7;stroke-width:1;"/><line style="stroke:#E7E7E7;stroke-width:1;stroke-dasharray:2.0,2.0;" x1="451.2188" x2="601.3154" y1="272.2266" y2="272.2266"/><text fill="#FFFFFF" font-family="sans-serif" font-size="13" lengthAdjust="spacing" textLength="126.6294" x="463.2188" y="267.1606">Starts Up Instances</text></g><g><polygon fill="#E7E7E7" points="595.3154,312.4922,605.3154,316.4922,595.3154,320.4922,599.3154,316.4922" style="stroke:#E7E7E7;stroke-width:1;"/><line style="stroke:#E7E7E7;stroke-width:1;" x1="446.2188" x2="601.3154" y1="316.4922" y2="316.4922"/><text fill="#FFFFFF" font-family="sans-serif" font-size="13" lengthAdjust="spacing" textLength="100.8706" x="453.2188" y="296.2935">Normalize Data</text><text fill="#FFFFFF" font-family="sans-serif" font-size="13" lengthAdjust="spacing" textLength="74.585" x="453.2188" y="311.4263">(Simplified)</text></g><g><polygon fill="#E7E7E7" points="457.2188,356.7578,447.2188,360.7578,457.2188,364.7578,453.2188,360.7578" style="stroke:#E7E7E7;stroke-width:1;"/><line style="stroke:#E7E7E7;stroke-width:1;" x1="451.2188" x2="606.3154" y1="360.7578" y2="360.7578"/><text fill="#FFFFFF" font-family="sans-serif" font-size="13" lengthAdjust="spacing" textLength="137.0967" x="463.2188" y="340.5591">Send Out Generation</text><text fill="#FFFFFF" font-family="sans-serif" font-size="13" lengthAdjust="spacing" textLength="114.499" x="463.2188" y="355.6919">Request Message</text></g><g><polygon fill="#E7E7E7" points="677.5303,385.8906,687.5303,389.8906,677.5303,393.8906,681.5303,389.8906" style="stroke:#E7E7E7;stroke-width:1;"/><line style="stroke:#E7E7E7;stroke-width:1;" x1="446.2188" x2="683.5303" y1="389.8906" y2="389.8906"/><text fill="#FFFFFF" font-family="sans-serif" font-size="13" lengthAdjust="spacing" textLength="122.6621" x="453.2188" y="384.8247">Generate New PDF</text></g><g><polygon fill="#E7E7E7" points="457.2188,430.1563,447.2188,434.1563,457.2188,438.1563,453.2188,434.1563" style="stroke:#E7E7E7;stroke-width:1;"/><line style="stroke:#E7E7E7;stroke-width:1;" x1="451.2188" x2="688.5303" y1="434.1563" y2="434.1563"/><text fill="#FFFFFF" font-family="sans-serif" font-size="13" lengthAdjust="spacing" textLength="139.0327" x="463.2188" y="413.9575">Send Out Completion</text><text fill="#FFFFFF" font-family="sans-serif" font-size="13" lengthAdjust="spacing" textLength="56.9766" x="463.2188" y="429.0903">Message</text></g><g><polygon fill="#E7E7E7" points="761.731,459.2891,771.731,463.2891,761.731,467.2891,765.731,463.2891" style="stroke:#E7E7E7;stroke-width:1;"/><line style="stroke:#E7E7E7;stroke-width:1;" x1="446.2188" x2="767.731" y1="463.2891" y2="463.2891"/><text fill="#FFFFFF" font-family="sans-serif" font-size="13" lengthAdjust="spacing" textLength="124.0332" x="453.2188" y="458.2231">Mark as completed</text></g><g><polygon fill="#E7E7E7" points="170.7056,488.4219,160.7056,492.4219,170.7056,496.4219,166.7056,492.4219" style="stroke:#E7E7E7;stroke-width:1;"/><line style="stroke:#E7E7E7;stroke-width:1;" x1="164.7056" x2="772.731" y1="492.4219" y2="492.4219"/><text fill="#FFFFFF" font-family="sans-serif" font-size="13" lengthAdjust="spacing" textLength="122.2686" x="176.7056" y="487.356">Report Completion</text></g><g><polygon fill="#E7E7E7" points="39.2651,532.6875,29.2651,536.6875,39.2651,540.6875,35.2651,536.6875" style="stroke:#E7E7E7;stroke-width:1;"/><line style="stroke:#E7E7E7;stroke-width:1;" x1="33.2651" x2="158.7056" y1="536.6875" y2="536.6875"/><text fill="#FFFFFF" font-family="sans-serif" font-size="13" lengthAdjust="spacing" textLength="80.8438" x="45.2651" y="516.4888">Update User</text><text fill="#FFFFFF" font-family="sans-serif" font-size="13" lengthAdjust="spacing" textLength="69.0371" x="45.2651" y="531.6216">Via Pusher</text></g><!--SRC=[PPB1Ri8m38RlUGgBqtRW1T24n42Ta0PZwzYf5wyn4D4cNP9gsfv-Jfe8ocwHy_dt7__1sXiBoqQHzg93wrMjEjGU7h4-avQZskJzfAo47PT-AhtOhM4XiVDa9u0kdyLNJpr1-LgEUxdBaQtqCxQV4cF7KBh1LWKyaHvpg-B6XsLtIXz7L2ootF0OcCxp6s06RyIkd7UmRZjZlSWt32NR39MUPpZOgAD5humM-MewmWhozGaMJGChz5Zfmfes7g4qlQtfqZOFMmZ2FCh1I-zXhzN1sBRXzPNgbsJg8-z4G1_2f64h5p_x3jRQUTGrEO38NLDRriE6nPATkrArNQCEYkIzIDJ8IJJ2AwRXbPLEou4DEOT7kepWA6QP9DZITqmYbFyBBWrFfK4m2MMT50pJ6xJd45Kzm2H5lhj9AuHq9NcTLuftndkHmTO-_geFXR3htOdi7m00]--></g></svg>