<svg xmlns="http://www.w3.org/2000/svg" xmlns:xlink="http://www.w3.org/1999/xlink" contentStyleType="text/css" data-diagram-type="SEQUENCE" height="765px" preserveAspectRatio="none" style="width:967px;height:765px;background:#1B1B1B;" version="1.1" viewBox="0 0 967 765" width="967px" zoomAndPan="magnify"><defs/><g><rect fill="#1B1B1B" height="765" style="stroke:none;stroke-width:1;" width="967" x="0" y="0"/><g><title>User</title><rect fill="#000000" fill-opacity="0.00000" height="587.5234" width="8" x="19.9551" y="83.5938"/><line style="stroke:#E7E7E7;stroke-width:0.5;stroke-dasharray:5.0,5.0;" x1="23" x2="23" y1="83.5938" y2="671.1172"/></g><g><title>Next Client</title><rect fill="#000000" fill-opacity="0.00000" height="587.5234" width="8" x="182.8926" y="83.5938"/><line style="stroke:#E7E7E7;stroke-width:0.5;stroke-dasharray:5.0,5.0;" x1="185.9722" x2="185.9722" y1="83.5938" y2="671.1172"/></g><g><title>Next Backend</title><rect fill="#000000" fill-opacity="0.00000" height="587.5234" width="8" x="417.7998" y="83.5938"/><line style="stroke:#E7E7E7;stroke-width:0.5;stroke-dasharray:5.0,5.0;" x1="420.9639" x2="420.9639" y1="83.5938" y2="671.1172"/></g><g><title>RESTful API</title><rect fill="#000000" fill-opacity="0.00000" height="587.5234" width="8" x="598.8979" y="83.5938"/><line style="stroke:#E7E7E7;stroke-width:0.5;stroke-dasharray:5.0,5.0;" x1="602.7471" x2="602.7471" y1="83.5938" y2="671.1172"/></g><g><title>Prisma ORM</title><rect fill="#000000" fill-opacity="0.00000" height="587.5234" width="8" x="770.7666" y="83.5938"/><line style="stroke:#E7E7E7;stroke-width:0.5;stroke-dasharray:5.0,5.0;" x1="774.3291" x2="774.3291" y1="83.5938" y2="671.1172"/></g><g><title>PostgreSQL</title><rect fill="#000000" fill-opacity="0.00000" height="587.5234" width="8" x="908.0088" y="83.5938"/><line style="stroke:#E7E7E7;stroke-width:0.5;stroke-dasharray:5.0,5.0;" x1="911.6323" x2="911.6323" y1="83.5938" y2="671.1172"/></g><g class="participant participant-head" data-participant="U"><text fill="#FFFFFF" font-family="sans-serif" font-size="14" lengthAdjust="spacing" textLength="31.9102" x="5" y="80.292">User</text><ellipse cx="23.9551" cy="15.7969" fill="#222222" rx="8" ry="8" style="stroke:#E7E7E7;stroke-width:0.5;"/><path d="M23.9551,23.7969 L23.9551,50.7969 M10.9551,31.7969 L36.9551,31.7969 M23.9551,50.7969 L10.9551,65.7969 M23.9551,50.7969 L36.9551,65.7969 " fill="none" style="stroke:#E7E7E7;stroke-width:0.5;"/></g><g class="participant participant-tail" data-participant="U"><text fill="#FFFFFF" font-family="sans-serif" font-size="14" lengthAdjust="spacing" textLength="31.9102" x="5" y="683.1123">User</text><ellipse cx="23.9551" cy="694.9141" fill="#222222" rx="8" ry="8" style="stroke:#E7E7E7;stroke-width:0.5;"/><path d="M23.9551,702.9141 L23.9551,729.9141 M10.9551,710.9141 L36.9551,710.9141 M23.9551,729.9141 L10.9551,744.9141 M23.9551,729.9141 L36.9551,744.9141 " fill="none" style="stroke:#E7E7E7;stroke-width:0.5;"/></g><g class="participant participant-head" data-participant="C"><rect fill="#222222" height="30.2969" rx="2.5" ry="2.5" style="stroke:#E7E7E7;stroke-width:0.5;" width="91.8408" x="140.9722" y="52.2969"/><text fill="#FFFFFF" font-family="sans-serif" font-size="14" lengthAdjust="spacing" textLength="77.8408" x="147.9722" y="72.292">Next Client</text></g><g class="participant participant-tail" data-participant="C"><rect fill="#222222" height="30.2969" rx="2.5" ry="2.5" style="stroke:#E7E7E7;stroke-width:0.5;" width="91.8408" x="140.9722" y="670.1172"/><text fill="#FFFFFF" font-family="sans-serif" font-size="14" lengthAdjust="spacing" textLength="77.8408" x="147.9722" y="690.1123">Next Client</text></g><g class="participant participant-head" data-participant="B"><rect fill="#222222" height="30.2969" rx="2.5" ry="2.5" style="stroke:#E7E7E7;stroke-width:0.5;" width="111.6719" x="365.9639" y="52.2969"/><text fill="#FFFFFF" font-family="sans-serif" font-size="14" lengthAdjust="spacing" textLength="97.6719" x="372.9639" y="72.292">Next Backend</text></g><g class="participant participant-tail" data-participant="B"><rect fill="#222222" height="30.2969" rx="2.5" ry="2.5" style="stroke:#E7E7E7;stroke-width:0.5;" width="111.6719" x="365.9639" y="670.1172"/><text fill="#FFFFFF" font-family="sans-serif" font-size="14" lengthAdjust="spacing" textLength="97.6719" x="372.9639" y="690.1123">Next Backend</text></g><g class="participant participant-head" data-participant="R"><rect fill="#222222" height="30.2969" rx="2.5" ry="2.5" style="stroke:#E7E7E7;stroke-width:0.5;" width="94.3018" x="555.7471" y="52.2969"/><text fill="#FFFFFF" font-family="sans-serif" font-size="14" lengthAdjust="spacing" textLength="80.3018" x="562.7471" y="72.292">RESTful API</text></g><g class="participant participant-tail" data-participant="R"><rect fill="#222222" height="30.2969" rx="2.5" ry="2.5" style="stroke:#E7E7E7;stroke-width:0.5;" width="94.3018" x="555.7471" y="670.1172"/><text fill="#FFFFFF" font-family="sans-serif" font-size="14" lengthAdjust="spacing" textLength="80.3018" x="562.7471" y="690.1123">RESTful API</text></g><g class="participant participant-head" data-participant="P"><rect fill="#222222" height="30.2969" rx="2.5" ry="2.5" style="stroke:#E7E7E7;stroke-width:0.5;" width="98.875" x="725.3291" y="52.2969"/><text fill="#FFFFFF" font-family="sans-serif" font-size="14" lengthAdjust="spacing" textLength="84.875" x="732.3291" y="72.292">Prisma ORM</text></g><g class="participant participant-tail" data-participant="P"><rect fill="#222222" height="30.2969" rx="2.5" ry="2.5" style="stroke:#E7E7E7;stroke-width:0.5;" width="98.875" x="725.3291" y="670.1172"/><text fill="#FFFFFF" font-family="sans-serif" font-size="14" lengthAdjust="spacing" textLength="84.875" x="732.3291" y="690.1123">Prisma ORM</text></g><g class="participant participant-head" data-participant="D"><text fill="#FFFFFF" font-family="sans-serif" font-size="14" lengthAdjust="spacing" textLength="80.7529" x="868.6323" y="63.9951">PostgreSQL</text><text fill="#FFFFFF" font-family="sans-serif" font-size="14" lengthAdjust="spacing" textLength="66.8008" x="875.6084" y="80.292">Database</text><path d="M894.0088,15 C894.0088,5 912.0088,5 912.0088,5 C912.0088,5 930.0088,5 930.0088,15 L930.0088,41 C930.0088,51 912.0088,51 912.0088,51 C912.0088,51 894.0088,51 894.0088,41 L894.0088,15 " fill="#222222" style="stroke:#E7E7E7;stroke-width:1.5;"/><path d="M894.0088,15 C894.0088,25 912.0088,25 912.0088,25 C912.0088,25 930.0088,25 930.0088,15 " fill="none" style="stroke:#E7E7E7;stroke-width:1.5;"/></g><g class="participant participant-tail" data-participant="D"><text fill="#FFFFFF" font-family="sans-serif" font-size="14" lengthAdjust="spacing" textLength="80.7529" x="868.6323" y="683.1123">PostgreSQL</text><text fill="#FFFFFF" font-family="sans-serif" font-size="14" lengthAdjust="spacing" textLength="66.8008" x="875.6084" y="699.4092">Database</text><path d="M894.0088,712.7109 C894.0088,702.7109 912.0088,702.7109 912.0088,702.7109 C912.0088,702.7109 930.0088,702.7109 930.0088,712.7109 L930.0088,738.7109 C930.0088,748.7109 912.0088,748.7109 912.0088,748.7109 C912.0088,748.7109 894.0088,748.7109 894.0088,738.7109 L894.0088,712.7109 " fill="#222222" style="stroke:#E7E7E7;stroke-width:1.5;"/><path d="M894.0088,712.7109 C894.0088,722.7109 912.0088,722.7109 912.0088,722.7109 C912.0088,722.7109 930.0088,722.7109 930.0088,712.7109 " fill="none" style="stroke:#E7E7E7;stroke-width:1.5;"/></g><g class="message" data-participant-1="U" data-participant-2="C"><polygon fill="#E7E7E7" points="174.8926,110.7266,184.8926,114.7266,174.8926,118.7266,178.8926,114.7266" style="stroke:#E7E7E7;stroke-width:1;"/><line style="stroke:#E7E7E7;stroke-width:1;" x1="23.9551" x2="180.8926" y1="114.7266" y2="114.7266"/><text fill="#FFFFFF" font-family="sans-serif" font-size="13" lengthAdjust="spacing" textLength="109.6113" x="30.9551" y="109.6606">Open Dashboard</text></g><rect fill="#111111" height="3" style="stroke:#111111;stroke-width:1;" width="960.3853" x="0" y="143.293"/><line style="stroke:#FFFFFF;stroke-width:1;" x1="0" x2="960.3853" y1="143.293" y2="143.293"/><line style="stroke:#FFFFFF;stroke-width:1;" x1="0" x2="960.3853" y1="146.293" y2="146.293"/><rect fill="#111111" height="23.1328" style="stroke:#FFFFFF;stroke-width:2;" width="116.9082" x="421.7385" y="132.7266"/><text fill="#FFFFFF" font-family="sans-serif" font-size="13" font-weight="bold" lengthAdjust="spacing" textLength="98.3823" x="427.7385" y="148.7935">First Request</text><g class="message" data-participant-1="B" data-participant-2="D"><polygon fill="#E7E7E7" points="900.0088,182.9922,910.0088,186.9922,900.0088,190.9922,904.0088,186.9922" style="stroke:#E7E7E7;stroke-width:1;"/><line style="stroke:#E7E7E7;stroke-width:1;stroke-dasharray:2.0,2.0;" x1="421.7998" x2="906.0088" y1="186.9922" y2="186.9922"/><text fill="#FFFFFF" font-family="sans-serif" font-size="13" lengthAdjust="spacing" textLength="184.3867" x="428.7998" y="181.9263">Initial Data Fetch and Cache</text></g><g class="message" data-participant-1="D" data-participant-2="B"><polygon fill="#E7E7E7" points="432.7998,212.125,422.7998,216.125,432.7998,220.125,428.7998,216.125" style="stroke:#E7E7E7;stroke-width:1;"/><line style="stroke:#E7E7E7;stroke-width:1;stroke-dasharray:2.0,2.0;" x1="426.7998" x2="911.0088" y1="216.125" y2="216.125"/><text fill="#FFFFFF" font-family="sans-serif" font-size="13" lengthAdjust="spacing" textLength="101.5435" x="438.7998" y="211.0591">Return all tasks</text></g><g class="message" data-participant-1="B" data-participant-2="C"><polygon fill="#E7E7E7" points="197.8926,256.3906,187.8926,260.3906,197.8926,264.3906,193.8926,260.3906" style="stroke:#E7E7E7;stroke-width:1;"/><line style="stroke:#E7E7E7;stroke-width:1;" x1="191.8926" x2="420.7998" y1="260.3906" y2="260.3906"/><text fill="#FFFFFF" font-family="sans-serif" font-size="13" lengthAdjust="spacing" textLength="145.4502" x="203.8926" y="240.1919">Validate response and</text><text fill="#FFFFFF" font-family="sans-serif" font-size="13" lengthAdjust="spacing" textLength="123.8428" x="203.8926" y="255.3247">Send Initial Render</text></g><rect fill="#111111" height="3" style="stroke:#111111;stroke-width:1;" width="960.3853" x="0" y="288.957"/><line style="stroke:#FFFFFF;stroke-width:1;" x1="0" x2="960.3853" y1="288.957" y2="288.957"/><line style="stroke:#FFFFFF;stroke-width:1;" x1="0" x2="960.3853" y1="291.957" y2="291.957"/><rect fill="#111111" height="23.1328" style="stroke:#FFFFFF;stroke-width:2;" width="161.6274" x="399.3789" y="278.3906"/><text fill="#FFFFFF" font-family="sans-serif" font-size="13" font-weight="bold" lengthAdjust="spacing" textLength="143.1016" x="405.3789" y="294.4575">Following Requests</text><g class="message" data-participant-1="B" data-participant-2="C"><polygon fill="#E7E7E7" points="197.8926,328.6563,187.8926,332.6563,197.8926,336.6563,193.8926,332.6563" style="stroke:#E7E7E7;stroke-width:1;"/><line style="stroke:#E7E7E7;stroke-width:1;" x1="191.8926" x2="420.7998" y1="332.6563" y2="332.6563"/><text fill="#FFFFFF" font-family="sans-serif" font-size="13" lengthAdjust="spacing" textLength="162.0493" x="203.8926" y="327.5903">Send Pre-Rendered Page</text></g><rect fill="#111111" height="3" style="stroke:#111111;stroke-width:1;" width="960.3853" x="0" y="353.6563"/><line style="stroke:#FFFFFF;stroke-width:1;" x1="0" x2="960.3853" y1="353.6563" y2="353.6563"/><line style="stroke:#FFFFFF;stroke-width:1;" x1="0" x2="960.3853" y1="356.6563" y2="356.6563"/><g class="message" data-participant-1="C" data-participant-2="U"><polygon fill="#E7E7E7" points="34.9551,385.7891,24.9551,389.7891,34.9551,393.7891,30.9551,389.7891" style="stroke:#E7E7E7;stroke-width:1;"/><line style="stroke:#E7E7E7;stroke-width:1;" x1="28.9551" x2="185.8926" y1="389.7891" y2="389.7891"/><text fill="#FFFFFF" font-family="sans-serif" font-size="13" lengthAdjust="spacing" textLength="109.9668" x="40.9551" y="384.7231">Show Dashboard</text></g><g class="message" data-participant-1="U" data-participant-2="C"><polygon fill="#E7E7E7" points="174.8926,414.9219,184.8926,418.9219,174.8926,422.9219,178.8926,418.9219" style="stroke:#E7E7E7;stroke-width:1;"/><line style="stroke:#E7E7E7;stroke-width:1;" x1="23.9551" x2="180.8926" y1="418.9219" y2="418.9219"/><text fill="#FFFFFF" font-family="sans-serif" font-size="13" lengthAdjust="spacing" textLength="107.377" x="30.9551" y="413.856">Create/Edit Task</text></g><g class="message" data-participant-1="C" data-participant-2="B"><polygon fill="#E7E7E7" points="409.7998,444.0547,419.7998,448.0547,409.7998,452.0547,413.7998,448.0547" style="stroke:#E7E7E7;stroke-width:1;"/><line style="stroke:#E7E7E7;stroke-width:1;" x1="186.8926" x2="415.7998" y1="448.0547" y2="448.0547"/><text fill="#FFFFFF" font-family="sans-serif" font-size="13" lengthAdjust="spacing" textLength="128.6606" x="193.8926" y="442.9888">Send POST Request</text></g><g class="message" data-participant-1="B" data-participant-2="R"><polygon fill="#E7E7E7" points="590.8979,473.1875,600.8979,477.1875,590.8979,481.1875,594.8979,477.1875" style="stroke:#E7E7E7;stroke-width:1;"/><line style="stroke:#E7E7E7;stroke-width:1;" x1="421.7998" x2="596.8979" y1="477.1875" y2="477.1875"/><text fill="#FFFFFF" font-family="sans-serif" font-size="13" lengthAdjust="spacing" textLength="157.0981" x="428.7998" y="472.1216">Forward as PUT or POST</text></g><g class="message" data-participant-1="R" data-participant-2="P"><polygon fill="#E7E7E7" points="762.7666,502.3203,772.7666,506.3203,762.7666,510.3203,766.7666,506.3203" style="stroke:#E7E7E7;stroke-width:1;"/><line style="stroke:#E7E7E7;stroke-width:1;" x1="602.8979" x2="768.7666" y1="506.3203" y2="506.3203"/><text fill="#FFFFFF" font-family="sans-serif" font-size="13" lengthAdjust="spacing" textLength="147.8687" x="609.8979" y="501.2544">Validate Request Body</text></g><g class="message" data-participant-1="P" data-participant-2="D"><polygon fill="#E7E7E7" points="900.0088,531.4531,910.0088,535.4531,900.0088,539.4531,904.0088,535.4531" style="stroke:#E7E7E7;stroke-width:1;"/><line style="stroke:#E7E7E7;stroke-width:1;" x1="774.7666" x2="906.0088" y1="535.4531" y2="535.4531"/><text fill="#FFFFFF" font-family="sans-serif" font-size="13" lengthAdjust="spacing" textLength="113.2422" x="781.7666" y="530.3872">Update Database</text></g><g class="message" data-participant-1="D" data-participant-2="B"><polygon fill="#E7E7E7" points="432.7998,560.5859,422.7998,564.5859,432.7998,568.5859,428.7998,564.5859" style="stroke:#E7E7E7;stroke-width:1;"/><line style="stroke:#E7E7E7;stroke-width:1;stroke-dasharray:2.0,2.0;" x1="426.7998" x2="911.0088" y1="564.5859" y2="564.5859"/><text fill="#FFFFFF" font-family="sans-serif" font-size="13" lengthAdjust="spacing" textLength="257.8608" x="438.7998" y="559.52">Send Back Success or Failure Response</text></g><g class="message" data-participant-1="B" data-participant-2="C"><polygon fill="#E7E7E7" points="197.8926,604.8516,187.8926,608.8516,197.8926,612.8516,193.8926,608.8516" style="stroke:#E7E7E7;stroke-width:1;"/><line style="stroke:#E7E7E7;stroke-width:1;" x1="191.8926" x2="420.7998" y1="608.8516" y2="608.8516"/><text fill="#FFFFFF" font-family="sans-serif" font-size="13" lengthAdjust="spacing" textLength="210.9072" x="203.8926" y="588.6528">Invalidate Cached GET response</text><text fill="#FFFFFF" font-family="sans-serif" font-size="13" lengthAdjust="spacing" textLength="163.687" x="203.8926" y="603.7856">and Rerender Dashboard</text></g><g class="message" data-participant-1="C" data-participant-2="U"><polygon fill="#E7E7E7" points="34.9551,649.1172,24.9551,653.1172,34.9551,657.1172,30.9551,653.1172" style="stroke:#E7E7E7;stroke-width:1;"/><line style="stroke:#E7E7E7;stroke-width:1;" x1="28.9551" x2="185.8926" y1="653.1172" y2="653.1172"/><text fill="#FFFFFF" font-family="sans-serif" font-size="13" lengthAdjust="spacing" textLength="138.9375" x="40.9551" y="632.9185">Route To Rerendered</text><text fill="#FFFFFF" font-family="sans-serif" font-size="13" lengthAdjust="spacing" textLength="70.7573" x="40.9551" y="648.0513">Dashboard</text></g><!--SRC=[RL91Ri8m4Bpx5IlkgFTAL6e2L4XjIPsa9ovBiWKBrqvjfxI_xzgG059FaJEpipDZOnEiWzgJ0_HGYmvTK8tgq0IOlD9FW5mhCc4IuVmVECFcGAPDU7QBoqLPVVGQ7ejLWkKjN3ZbFn7MyYMXXMWnu1OzCMHzs3agtvutPdx-cqXpKSFq0NAuXtL71kRezrkBhXMp6IoLym4aVVN4tzbCG0PJPi-PlJ8gADGGrM19eTa3cXPoRFOac15v6VCaXTuPGAqXe3_uf75Q-8vQiKK2HxwpXdsomiQKd7wKbtmWbynOhUrHcTrWo4T7erYQAXnDJnF41znH76HM7bbrPEtjyIhZc3rtn4Rk5gqAKB7DqqGswgxBQbXxMYaPMbftP9NKTLq1Ntla2HdnuZhVq61csrzHmBd1kalWS1tYqbdQ6Ty1b7tJaFTHUubAzowAdSkwP5-Pxs5Lwh-5fqKrjhenyM8aTnABkKe_jY9jpwEL7KdKncTovlq1]--></g></svg>